<?xml version="1.0" encoding="UTF-8" standalone="no"?>
<svg width="544px" height="299px" viewBox="0 0 544 299" version="1.1" xmlns="http://www.w3.org/2000/svg" xmlns:xlink="http://www.w3.org/1999/xlink" xmlns:sketch="http://www.bohemiancoding.com/sketch/ns">
    <!-- Generator: Sketch 3.4.2 (15855) - http://www.bohemiancoding.com/sketch -->
    <title>Oval 1</title>
    <desc>Created with Sketch.</desc>
    <defs></defs>
    <g id="Page-1" stroke="none" stroke-width="1" fill="none" fill-rule="evenodd" sketch:type="MSPage">
        <path d="M376.108656,264.583151 C358.383622,276.841263 337.009403,284 314,284 C301.038636,284 288.59614,281.728425 277.032508,277.553377 C269.601914,279.156705 261.897269,280 254,280 C231.653581,280 210.849473,273.247858 193.432552,261.630002 C173.158772,283.999135 144.178411,298 112,298 C50.6963928,298 1,247.184319 1,184.5 C1,123.30966 48.3557552,73.4289612 107.637078,71.0860673 C127.392955,39.7494136 161.826708,19 201,19 C223.346419,19 244.150527,25.7521418 261.567448,37.3699976 C281.841212,15.0008729 310.82158,1 343,1 C382.173292,1 416.607045,21.7494136 436.362922,53.0860673 C495.644245,55.4289612 543,105.30966 543,166.5 C543,229.184319 493.303607,280 432,280 C411.620319,280 392.523414,274.384086 376.108664,264.583156 Z" id="Oval-1" stroke="#979797" fill="#FFFFFF" sketch:type="MSShapeGroup"></path>
    </g>
</svg>