<svg width="404px" height="404px" viewBox="0 0 404 404" version="1.1" xmlns="http://www.w3.org/2000/svg" xmlns:xlink="http://www.w3.org/1999/xlink" xmlns:sketch="http://www.bohemiancoding.com/sketch/ns">
    <defs></defs>
    <g id="Page-1" stroke="none" stroke-width="1" fill="none" fill-rule="evenodd" sketch:type="MSPage">
        <path d="M332.978001,248.014666 L282,282 L236.303938,350.544093 L231.055011,341.4429 L244.976035,323.976051 L246.26726,302 L222.036609,311.532875 L215.333333,353.416998 L225.696022,366.455967 L202,402 L122,282 L76.3918023,251.594535 L78.8818199,242.318942 L101.076398,239.811664 L117.528847,225.185284 L93.6544283,214.792387 L59.2979491,239.669003 L59.2416699,240.161113 L2,202 L122,122 L159.211302,66.1830473 L168.391995,82.1015877 L154.470971,99.5684373 L153.179746,121.544488 L177.410397,112.011613 L184.113672,70.1274899 L169.141197,51.2882052 L202,2 L282,122 L402,202 L354.249643,233.833571 L333.007247,228.131085 L330.49997,205.936507 L315.873589,189.484058 L305.480692,213.358477 L330.357308,247.714956 L332.978001,248.014666 Z M165.789369,145.437201 L166.873796,175.700296 L165.522045,186.852247 L170.934095,214.300874 L168.230591,238.143149 L174.540447,270.620493 L190.267168,270.620493 L188.975943,245.033047 L188.975943,222.608093 L211.915369,222.608093 L218.618644,262.298142 L241.946447,257.334995 L241.946447,218.608321 L234.279796,174.207317 L224.807447,128.141843 L198.448292,134.779548 L209.272392,155.978846 L215.647817,191.487544 L194.635142,188.778997 L185.223319,168.094172 L185.223319,137.099719 L165.789369,145.437201 Z" id="Triangle-1" stroke="#052D3D" stroke-width="2" fill="#052D3D" sketch:type="MSShapeGroup"></path>
    </g>
</svg>