<?xml version="1.0" encoding="UTF-8" standalone="no"?>
<svg width="259px" height="124px" viewBox="0 0 259 124" version="1.1" xmlns="http://www.w3.org/2000/svg" xmlns:xlink="http://www.w3.org/1999/xlink" xmlns:sketch="http://www.bohemiancoding.com/sketch/ns">
    <!-- Generator: Sketch 3.4.2 (15855) - http://www.bohemiancoding.com/sketch -->
    <title>Group + mywebsite-logo</title>
    <desc>Created with Sketch.</desc>
    <defs>
        <radialGradient cx="50%" cy="0%" fx="50%" fy="0%" r="100%" id="radialGradient-1">
            <stop stop-color="#EEEEEE" offset="0%"></stop>
            <stop stop-color="#D8D8D8" offset="100%"></stop>
        </radialGradient>
        <radialGradient cx="50%" cy="0%" fx="50%" fy="0%" r="100%" id="radialGradient-2">
            <stop stop-color="#DDDEDF" offset="0%"></stop>
            <stop stop-color="#B7BABB" offset="100%"></stop>
        </radialGradient>
        <path id="path-3" d="M120.5,3.18334864 L120.5,35.506581"></path>
    </defs>
    <g id="Page-1" stroke="none" stroke-width="1" fill="none" fill-rule="evenodd" sketch:type="MSPage">
        <g id="Group-+-mywebsite-logo" sketch:type="MSLayerGroup" transform="translate(2.000000, 3.000000)">
            <g id="Group">
                <path d="M112.399547,35.8684697 L98.4120686,20.079654 L119.419407,2.9966908 L156.418966,6.74745198 L168.778273,17.846467 L153.468449,36.5182418 L112.399547,35.8684697 Z" id="window-background" opacity="0.5" fill="url(#radialGradient-1)" sketch:type="MSShapeGroup"></path>
                <path d="M97.2178549,21.2309412 L110.980178,44.7564607 L156.72184,41.4158301 L169.200275,18.4400472 L156.721842,8.39608109 L156.014246,32.4037024 L152.540665,37.5859538 L112.492652,36.1904917 L97.2178549,21.2309412 Z" id="background-fill-4" fill="#CACDCD" sketch:type="MSShapeGroup"></path>
                <path d="M95.2682238,19.5793258 L96.4504269,21.6221021 L92.64616,80.0104854 L86.3187726,78.9933847 L62.499767,88.289 L63.1762606,91.1804159 L58.4525582,91.1804175 L59.012165,18.4346445 L95.2682238,19.5793258 Z" id="background-fill" fill="#396374" sketch:type="MSShapeGroup"></path>
                <path d="M119,4.31317463 L119,35.7680887" id="background-fill-5" stroke="#CACDCD" stroke-width="3" stroke-linecap="square" sketch:type="MSShapeGroup"></path>
                <path d="M90.5435662,95.5265261 L91.1317701,80.3884734 L103.325372,80.5198587 L130.916945,86.099116 L133.501838,93.2634653 L115.2502,96.5350112 C115.2502,96.5350112 113.109304,97.0135916 111.039476,97.6310008 C108.969649,98.2484101 90.5435662,95.5265261 90.5435662,95.5265261 Z" id="background-fill-2" fill="#396374" sketch:type="MSShapeGroup"></path>
                <path d="M14.9976063,59.0740101 L15.5431746,60.6903741 L9.00311629,60.1822265 L8.35197092,48.7700768 L14.9175134,49.324185 L14.9976063,59.0740101 Z" id="background-fill-3" stroke="#979797" fill="#CACDCE" sketch:type="MSShapeGroup"></path>
                <path d="M58.5765617,18.3599158 L58.1139359,90.5380401 L20.9047198,87.5079984 L15.5412292,83.1256761 L15.1899305,25.6899883 L20.2058333,21.5275192 L58.5765617,18.3599158 Z" id="Path-1" stroke="#000000" stroke-width="4" fill="url(#radialGradient-2)" sketch:type="MSShapeGroup"></path>
                <path d="M58.9723913,17.9843531 L96.8804939,19.3513724 L111.745131,36.3881413 L152.307766,37.2515865 L167.922005,17.994179 L156.908047,6.94871269 L119.538026,2.61183495 L97.5492068,19.0548544" id="Path-2" stroke="#0D0D0D" stroke-width="4" sketch:type="MSShapeGroup"></path>
                <path d="M95.1560325,19.7897416 L110.519634,44.8413776 L156.377991,41.5671134 L169.59464,18.2202769 L211.124225,26.9467524 L224.907196,4.32170183 L238.149202,0.0277051703 L251.36585,5.85234956 L254.405606,13.3639587 L254.702502,40.6680283 L253.242321,48.6234099 C253.242321,48.6234099 247.09307,57.1841261 247.093077,57.1841264 C247.093083,57.1841267 138.76812,89.4892911 138.76812,89.4892911 L133.917402,93.3825288 L130.950162,85.819863 L103.024603,80.4618322 L85.1708602,79.6809259 L63.3232276,88.7189996 L63.705902,93.1878104 L73.8067484,97.1823124 L90.7060044,97.6400248" id="Path-3" stroke="#000000" stroke-width="4" fill="#396374" sketch:type="MSShapeGroup"></path>
                <path d="M113.893192,96.7577163 L133.689072,93.894305 L139.641548,86.8234533 L135.217186,80.8583569 L105.12134,79.9197026" id="Path-4" stroke="#080808" stroke-width="4" sketch:type="MSShapeGroup"></path>
                <path d="M203.828566,50.7811919 L206.618855,46.1364005 L230.134772,41.8350946 L247.405264,46.4386265 L247.764698,49.2339596 L233.280339,53.665233 L203.828566,50.7811919 Z" id="Path-5" stroke="#000000" stroke-width="4" sketch:type="MSShapeGroup"></path>
                <path d="M34.598519,88.819383 L38.9044553,98.0408877 L56.1801416,96.9341008 L59.3163591,91.7488095 L63.4363454,91.7488095" id="Path-6" stroke="#000000" stroke-width="4" fill="#C8CBCC" sketch:type="MSShapeGroup"></path>
                <path d="M211.859735,27.1993082 L234.817803,34.0865551 L234.911297,13.5083651 L222.579386,9.39169562" id="Path-7" stroke="#000000" stroke-width="4" sketch:type="MSShapeGroup"></path>
                <path d="M235.562641,34.0236343 L253.990386,41.2543667" id="Path-8" stroke="#000000" stroke-width="4" sketch:type="MSShapeGroup"></path>
                <path d="M7.79055979,48.3334704 L7.79055979,23.9955058 L10.5559162,21.4095649 L9.99806631,3.44207157 L7.04779877,3.70613255 L3.08779177,10.2921848 L2.87690997,48.3159351 L7.79055979,48.3334704 Z" id="Path-9" stroke="#000000" stroke-width="4" fill="#CFD1D2" sketch:type="MSShapeGroup"></path>
                <path d="M3.17401438,62.5752282 L2.95897727,99.7624415 L6.3071154,106.834325 L9.6033122,107.823522 L10.347112,92.3852378 L8.00767455,86.9224761 L7.55578498,62.8320688 L3.17401438,62.5752282 Z" id="Path-10" stroke="#000000" stroke-width="4" fill="#C9CCCD" sketch:type="MSShapeGroup"></path>
                <g id="Line">
                    <use stroke="none" sketch:type="MSShapeGroup" xlink:href="#path-3"></use>
                    <use stroke="#000000" stroke-width="1" stroke-linecap="square" xlink:href="#path-3"></use>
                </g>
                <path d="M116.550987,104.717066 C116.550987,96.8242545 110.100462,90.4258668 102.143337,90.4258668 C94.1862114,90.4258668 87.7356868,96.8242545 87.7356868,104.717066 C87.7356868,112.609877 94.1862114,119.008264 102.143337,119.008264 C110.100462,119.008264 116.550987,112.609877 116.550987,104.717066 Z" id="Oval-1" stroke="#000000" stroke-width="4" fill="#8A8888" sketch:type="MSShapeGroup"></path>
                <ellipse id="Oval-1" stroke="#000000" stroke-width="4" fill="#D8D8D8" sketch:type="MSShapeGroup" cx="102.098646" cy="104.560759" rx="5.42553191" ry="5.63207836"></ellipse>
                <ellipse id="Oval-2" stroke="#000000" stroke-width="4" fill="#8A8888" sketch:type="MSShapeGroup" cx="235.517408" cy="70.523416" rx="8.13829787" ry="7.83593511"></ellipse>
                <ellipse id="Oval-3" stroke="#000000" stroke-width="4" fill="#D8D8D8" sketch:type="MSShapeGroup" cx="235.517408" cy="70.768289" rx="3.20599613" ry="3.18334864"></ellipse>
                <path d="M9.55481529,62.2162519 C9.55481529,62.2162519 4.928295,62.7330582 2.20490505,61.0410784 C0.293297299,59.8534403 -0.0123382861,56.6795968 0.000242216205,55.3412919 C0.0061981176,54.7077074 0.0169665244,53.3093719 0.540956323,52.1691794 C1.04684049,51.0683844 2.204905,50.2137788 2.204905,50.2137788 L5.32173995,50.2137788 L8.69474155,50.2137788 L8.73356543,61.4703908" id="Path-15" stroke="#000000" stroke-width="4" fill="#CACCCD" sketch:type="MSShapeGroup"></path>
                <path d="M9.12475822,49.4643404 L14.5502901,49.4643404" id="Line" stroke="#000000" stroke-width="4" stroke-linecap="square" sketch:type="MSShapeGroup"></path>
                <path d="M9.12475822,60.7284971 L14.5502901,60.7284971" id="Line" stroke="#000000" stroke-width="4" stroke-linecap="square" sketch:type="MSShapeGroup"></path>
                <path d="M117.5,3.47107438 L117.5,37.190083" id="Line" stroke="#000000" stroke-linecap="square" sketch:type="MSShapeGroup"></path>
                <path d="M156.898963,8.08862281 L156.372873,32.852018" id="Line" stroke="#000000" stroke-linecap="square" sketch:type="MSShapeGroup"></path>
            </g>
            <g id="mywebsite-logo" transform="translate(155.898963, 35.261708)" fill="#052D3D" sketch:type="MSShapeGroup">
                <g id="Triangle-1">
                    <g id="Page-1" transform="translate(0.000000, -0.000000)">
                        <path d="M30.6090632,22.5908784 L25.8945841,25.7116621 L21.6685823,32.0058855 L21.1831581,31.1701469 L22.4705835,29.5662122 L22.5899968,27.5482094 L20.3491303,28.4235882 L19.7292069,32.2696968 L20.6875552,33.4670309 L18.4961315,36.7309458 L11.0976789,25.7116621 L6.8798028,22.9196084 L7.11008126,22.0678551 L9.16265044,21.8376184 L10.6841837,20.4945164 L8.4762618,19.5401641 L5.29895201,21.8245182 L5.29374728,21.8697073 L0,18.3654729 L11.0976789,11.0192837 L14.5390046,5.89376008 L15.3880411,7.3555177 L14.1006157,8.95945246 L13.9812023,10.9774553 L16.2220689,10.1020765 L16.8419922,6.25596785 L15.4573278,4.52600599 L18.4961315,-1.42108547e-14 L25.8945841,11.0192837 L36.9922631,18.3654729 L32.5762786,21.2886658 L30.6117679,20.7650216 L30.3798933,18.726952 L29.0272359,17.2161669 L28.066094,19.4084919 L30.3666998,22.5633568 L30.6090632,22.5908784 L30.6090632,22.5908784 Z M15.1473486,13.1714601 L15.2476371,15.9504404 L15.1226263,16.9744947 L15.6231362,19.4950298 L15.3731144,21.684403 L15.956654,24.6667119 L17.4110715,24.6667119 L17.2916582,22.3170842 L17.2916582,20.2578598 L19.4131114,20.2578598 L20.0330347,23.9024924 L22.1904052,23.4467397 L22.1904052,19.8905713 L21.4813883,15.8133441 L20.6053792,11.583273 L18.1676672,12.192796 L19.1686871,14.1394716 L19.7582906,17.4001418 L17.8150246,17.151423 L16.944613,15.2519901 L16.944613,12.4058511 L15.1473486,13.1714601 L15.1473486,13.1714601 Z" id="Triangle-1"></path>
                    </g>
                </g>
            </g>
        </g>
    </g>
</svg>