<?xml version="1.0" encoding="UTF-8" standalone="no"?>
<svg width="642px" height="1122px" viewBox="0 0 642 1122" version="1.1" xmlns="http://www.w3.org/2000/svg" xmlns:xlink="http://www.w3.org/1999/xlink" xmlns:sketch="http://www.bohemiancoding.com/sketch/ns">
    <!-- Generator: Sketch 3.4.2 (15855) - http://www.bohemiancoding.com/sketch -->
    <title>Rectangle 1 + Oval 1</title>
    <desc>Created with Sketch.</desc>
    <defs></defs>
    <g id="Page-1" stroke="none" stroke-width="1" fill="none" fill-rule="evenodd" sketch:type="MSPage">
        <g id="Rectangle-1-+-Oval-1" sketch:type="MSLayerGroup" transform="translate(1.000000, 1.000000)" stroke="#979797">
            <path d="M398,1000.70007 L398,497 L225,497 L225,990.995903 L37.0286554,1077.32584 L212.783412,1070.42854 L246.267313,1120.99187 L326.5,1087 L406.732687,1120.99187 L441.954971,1070.42854 L563.833099,1070.42854 L398,1000.70007 Z" id="Rectangle-1" fill="#473406" sketch:type="MSShapeGroup"></path>
            <path d="M549.182598,191.220795 C599.913431,194.584292 640,235.956814 640,286.5 C640,308.088962 632.686299,328.004758 620.353351,344 C632.686299,359.995242 640,379.911038 640,401.5 C640,441.382473 615.040388,475.554899 579.586557,489.848611 C581.168017,497.477472 582,505.389388 582,513.5 C582,576.184319 532.303607,627 471,627 C450.62032,627 431.523415,621.384086 415.108665,611.583156 C397.383622,623.841263 376.009403,631 353,631 C340.038636,631 327.59614,628.728425 316.032508,624.553377 C308.601914,626.156705 300.897269,627 293,627 C270.653581,627 249.849473,620.247858 232.432552,608.630002 C212.158788,630.999127 183.17842,645 151,645 C89.6963928,645 40,594.184319 40,531.5 C40,514.856562 43.5034275,499.049823 49.7973408,484.808781 C20.0779205,468.447337 0,437.270296 0,401.5 C0,379.911038 7.31370077,359.995242 19.6466488,344 C7.31370077,328.004758 0,308.088962 0,286.5 C0,236.274936 39.5835422,195.105458 89.8607644,191.288815 C84.1403021,180.508818 81,168.774853 81,156.5 C81,103.756806 138.979125,61 210.5,61 C223.218964,61 235.509663,62.3522067 247.122174,64.8723145 C260.153134,27.1519229 296.589326,0 339.5,0 C376.340235,0 408.408264,20.0131155 424.990194,49.5452232 C438.813674,42.1826281 454.658155,38 471.5,38 C525.347763,38 569,80.7568064 569,133.5 C569,155.188411 561.618763,175.188206 549.182598,191.220795 Z" id="Oval-1" fill="rgb(6, 71, 52)" sketch:type="MSShapeGroup"></path>
        </g>
    </g>
</svg>